<svg xmlns="http://www.w3.org/2000/svg" width="97.924" height="21.611" viewBox="0 0 97.924 21.611">
  <g id="DHL_Logo" transform="translate(0 0)">
    <path id="Path_215" data-name="Path 215" d="M97.924,0V21.611H0V0Z" fill="#fecc00"/>
    <path id="Path_216" data-name="Path 216" d="M31.573,12.046c-.428.572-1.144,1.566-1.58,2.147-.221.3-.621.831.7.831H37.67s1.124-1.509,2.066-2.771c1.282-1.717.111-5.289-4.471-5.289H17.222L14.093,11.16H31.144C32.005,11.16,31.994,11.483,31.573,12.046ZM26.45,16.059c-1.324,0-.925-.537-.7-.832.436-.581,1.163-1.564,1.591-2.136s.432-.886-.43-.886h-7.8l-6.283,8.427H28.15A10.879,10.879,0,0,0,36.9,16.06Zm9.968,4.572h8.989l3.408-4.573H39.827S36.418,20.631,36.418,20.631ZM59.611,6.965l-3.448,4.622H52.151L55.6,6.965H46.611L40.6,15.024H62.586L68.6,6.965ZM49.419,20.631H58.4l3.409-4.572H52.828S49.419,20.631,49.419,20.631ZM0,17.863v.971H12.519l.723-.971Zm14.588-1.8H0v.97H13.863ZM0,20.631H11.178l.72-.966H0Zm84.732-1.8H97.924v-.971H85.457Zm-1.34,1.8H97.924v-.966H84.112ZM86.8,16.059l-.723.971H97.924v-.971ZM75.03,15.024l6.011-8.059H71.524s-6.016,8.059-6.016,8.059ZM64.738,16.059s-.657.886-.976,1.313c-1.128,1.5-.13,3.26,3.553,3.26H81.746l3.409-4.572H64.738Z" transform="translate(0 -2.993)" fill="#d50029"/>
  </g>
</svg>
