<svg xmlns="http://www.w3.org/2000/svg" width="75.133" height="16.772" viewBox="0 0 75.133 16.772">
  <g id="Klarna_Logo_black" transform="translate(0 0)">
    <path id="Path_207" data-name="Path 207" d="M34.026,0H30.553a9.7,9.7,0,0,1-3.582,7.64L25.6,8.736l5.327,7.74H35.3L30.4,9.351A13.548,13.548,0,0,0,34.026,0Z" transform="translate(-21.613)"/>
    <rect id="Rectangle_110" data-name="Rectangle 110" width="3.551" height="16.476"/>
    <rect id="Rectangle_111" data-name="Rectangle 111" width="3.349" height="16.476" transform="translate(15.725)"/>
    <path id="Path_208" data-name="Path 208" d="M269.479,28.7a3.874,3.874,0,0,0-3.3,1.5V29H263V39.68h3.224V34.073a2.25,2.25,0,0,1,2.4-2.414c1.4,0,2.212.841,2.212,2.4V39.7h3.193V32.89A4.235,4.235,0,0,0,269.479,28.7Z" transform="translate(-218.876 -23.204)"/>
    <path id="Path_209" data-name="Path 209" d="M133.215,29v.685a5.562,5.562,0,0,0-3.177-.981,5.638,5.638,0,0,0,0,11.276A5.562,5.562,0,0,0,133.215,39v.685h3.193V29ZM130.3,37.079a2.745,2.745,0,1,1,2.9-2.741A2.822,2.822,0,0,1,130.3,37.079Z" transform="translate(-103.504 -23.204)"/>
    <path id="Path_210" data-name="Path 210" d="M215.571,31.986V30.6H212.3V41.285h3.286V36.3c0-1.682,1.822-2.585,3.084-2.585h.031V30.6A4.012,4.012,0,0,0,215.571,31.986Z" transform="translate(-176.866 -24.808)"/>
    <path id="Path_211" data-name="Path 211" d="M349.815,29v.685a5.562,5.562,0,0,0-3.177-.981,5.638,5.638,0,0,0,0,11.276A5.562,5.562,0,0,0,349.815,39v.685h3.193V29ZM346.9,37.079a2.745,2.745,0,1,1,2.9-2.741A2.822,2.822,0,0,1,346.9,37.079Z" transform="translate(-283.295 -23.204)"/>
    <g id="Group_93" data-name="Group 93" transform="translate(71.099 4.809)">
      <path id="Path_212" data-name="Path 212" d="M430.876,31.249A.247.247,0,0,0,430.6,31h-.3v.81h.14v-.3h.156l.125.3h.156l-.14-.327A.242.242,0,0,0,430.876,31.249Zm-.28.125h-.156v-.249h.156c.093,0,.14.047.14.125S430.7,31.374,430.6,31.374Z" transform="translate(-429.786 -30.657)"/>
      <path id="Path_213" data-name="Path 213" d="M427.763,28.8a.764.764,0,0,0-.763.763.775.775,0,0,0,.763.763.763.763,0,1,0,0-1.526Zm0,1.386a.612.612,0,0,1-.607-.623.622.622,0,0,1,.607-.623.612.612,0,0,1,.607.623A.622.622,0,0,1,427.763,30.186Z" transform="translate(-427 -28.8)"/>
    </g>
    <path id="Path_214" data-name="Path 214" d="M429.109,74.9a2.009,2.009,0,1,0,2.009,2.009A2.014,2.014,0,0,0,429.109,74.9Z" transform="translate(-355.985 -62.208)"/>
  </g>
</svg>
