<svg xmlns="http://www.w3.org/2000/svg" viewBox="0 0 21 17.5">
  <defs>
    <style>
      .cls-1 {
        fill: #383838;
      }
    </style>
  </defs>
  <path id="iconmonstr-book-19" class="cls-1" d="M10.5,4.368C7.929,2.766,4.011,2.122,0,2V17.5a25.226,25.226,0,0,1,9.334,1.746,2.8,2.8,0,0,0,2.334,0A25.221,25.221,0,0,1,21,17.5V2c-4.011.122-7.929.766-10.5,2.368ZM1.75,15.834V3.843c4.512.34,6.586,1.28,7.875,2.042V17.407A29.865,29.865,0,0,0,1.75,15.834Zm17.5,0a29.791,29.791,0,0,0-7.875,1.574V5.883c1.271-.753,3.351-1.7,7.875-2.04V15.834ZM17.5,6.9a24.151,24.151,0,0,0-5.25,1.463V7.428A26.975,26.975,0,0,1,17.5,6.006Zm0,2.673a26.975,26.975,0,0,0-5.25,1.423v.931A24.15,24.15,0,0,1,17.5,10.46Zm0-1.777a26.975,26.975,0,0,0-5.25,1.423v.931A24.15,24.15,0,0,1,17.5,8.682Zm0,5.331a26.975,26.975,0,0,0-5.25,1.423v.931a24.15,24.15,0,0,1,5.25-1.464v-.89Zm0-1.777a26.975,26.975,0,0,0-5.25,1.423V13.7a24.15,24.15,0,0,1,5.25-1.464ZM3.5,6.006A26.975,26.975,0,0,1,8.75,7.428v.931A24.1,24.1,0,0,0,3.5,6.9V6.006Zm0,4.454a24.1,24.1,0,0,1,5.25,1.464v-.931A26.975,26.975,0,0,0,3.5,9.57Zm0-1.777a24.1,24.1,0,0,1,5.25,1.464V9.215A26.913,26.913,0,0,0,3.5,7.792Zm0,5.331a24.1,24.1,0,0,1,5.25,1.464v-.931A26.975,26.975,0,0,0,3.5,13.124Zm0-1.777A24.1,24.1,0,0,1,8.75,13.7v-.931A26.975,26.975,0,0,0,3.5,11.347Z" transform="translate(0 -2)"/>
</svg>
