<svg xmlns="http://www.w3.org/2000/svg" viewBox="0 0 15 18">
  <defs>
    <style>
      .cls-1 {
        fill: #383838;
      }
    </style>
  </defs>
  <path id="iconmonstr-book-11" class="cls-1" d="M4.621,1.5H17V0H4.25A2.25,2.25,0,0,0,2,2.25v13.5A2.25,2.25,0,0,0,4.25,18H17V3H4.621a.75.75,0,1,1,0-1.5Zm5.671,5.455a.8.8,0,0,1,1.085.014.7.7,0,0,1-.1,1.023.8.8,0,0,1-1.085-.014A.7.7,0,0,1,10.292,6.955Zm.437,3.425c-.47,1.131-.806,1.894-1,2.483-.28.858.427.51,1.12-.13.1.155.125.2.22.381-1.541,1.465-3.248,1.594-2.717-.09.348-1.1,1.007-2.422,1.122-2.756.169-.484-.13-.7-1.072.128L8.2,10c1.073-1.168,3.286-1.432,2.533.378Z" transform="translate(-2)"/>
</svg>
