<?xml version="1.0" encoding="utf-8"?>
<!-- Generator: Adobe Illustrator 21.1.0, SVG Export Plug-In . SVG Version: 6.00 Build 0)  -->
<svg version="1.1" id="Lager_1" xmlns="http://www.w3.org/2000/svg" xmlns:xlink="http://www.w3.org/1999/xlink" x="0px" y="0px"
	 viewBox="0 0 20.7 25.9" style="enable-background:new 0 0 20.7 25.9;" xml:space="preserve">
<style type="text/css">
	.st0{fill:#FFFFFF;}
</style>
<path id="iconmonstr-shopping-bag-17" class="st0" d="M18.6,14.5c1.2,1.7,0.9,2.9,2.1,4.6L16,22.5c-1.7-1.2-3.5-2.2-5.5-2.8
	c-0.7-0.2-1.1-0.7-1-1.2c0.2-0.5,0.7-0.8,1.2-0.7c0.4,0,0.9,0.1,1.3,0.2l-3.3-4.6c-0.3-0.4-0.2-1,0.2-1.3s1-0.2,1.3,0.2l2.2,3.1
	c0.1,0.2,0.3,0.2,0.5,0.1c0.2-0.1,0.2-0.3,0.1-0.5l0,0l-0.6-0.8l0.9-0.2c0.2-0.1,0.5,0,0.6,0.2l0.5,0.6c0.1,0.2,0.3,0.2,0.5,0.1
	c0.2-0.1,0.2-0.3,0.1-0.5l0,0l-0.5-0.7l0.9-0.2c0.2,0,0.5,0,0.6,0.2l0.4,0.5c0.1,0.2,0.3,0.2,0.5,0.1c0.2-0.1,0.2-0.3,0.1-0.5l0,0
	l-0.4-0.6h0.3C17.5,13.3,18,13.8,18.6,14.5L18.6,14.5z M8.4,11.5c0.6-0.4,1.3-0.4,1.9,0c-0.3-0.8-1.2-1.3-2-1.1
	c-0.8,0.3-1.3,1.2-1.1,2c0.1,0.3,0.3,0.6,0.6,0.8C7.6,12.6,7.8,11.9,8.4,11.5z M9.9,21.6c-0.6-0.2-1.1-0.5-1.5-0.9H1.9V7.5h2.8v1.4
	c0,0.3,0.2,0.5,0.5,0.5s0.5-0.2,0.5-0.5V7.5h5.6v1.4c0,0.3,0.2,0.5,0.5,0.5s0.5-0.2,0.5-0.5V7.5H15v4.3c0.6-0.1,1.2-0.2,1.9-0.3V5.6
	h-4.7V3.8c0-2.1-1.7-3.8-3.8-3.8c-2,0-3.7,1.7-3.7,3.8v1.9H0v16.9h12.3C11.5,22.2,10.7,21.8,9.9,21.6z M5.6,3.8C5.7,2.2,7,1,8.5,1
	s2.7,1.3,2.8,2.8v1.9H5.6V3.8z"/>
</svg>
