<svg xmlns="http://www.w3.org/2000/svg" viewBox="0 0 19 17.417">
  <defs>
    <style>
      .cls-1 {
        fill: #383838;
      }
    </style>
  </defs>
  <path id="iconmonstr-help-5" class="cls-1" d="M9.5,1C4.482,1,0,4.346,0,8.922a6.976,6.976,0,0,0,1.621,4.453A12.439,12.439,0,0,1,.043,18.417a22.8,22.8,0,0,0,6.316-2.008C13.67,18.188,19,13.713,19,8.922,19,4.321,14.487,1,9.5,1Zm0,11.875a.811.811,0,1,1,.811-.811A.811.811,0,0,1,9.5,12.875Zm1.271-3.846a1.718,1.718,0,0,0-.606,1.413h-1.3a2.387,2.387,0,0,1,.929-2.25c.371-.353.665-.633.624-1.182a.857.857,0,0,0-.884-.795c-.46,0-1,.342-1,1.305h-1.3A2.3,2.3,0,0,1,9.559,4.958a2.289,2.289,0,0,1,1.655.62,2.028,2.028,0,0,1,.554,1.491,2.9,2.9,0,0,1-1,1.96Z" transform="translate(0 -1)"/>
</svg>
