<?xml version="1.0" encoding="utf-8"?>
<!-- Generator: Adobe Illustrator 21.1.0, SVG Export Plug-In . SVG Version: 6.00 Build 0)  -->
<svg version="1.1" id="Lager_1" xmlns="http://www.w3.org/2000/svg" xmlns:xlink="http://www.w3.org/1999/xlink" x="0px" y="0px"
	 viewBox="0 0 20 24" style="enable-background:new 0 0 20 24;" xml:space="preserve">
<style type="text/css">
	.st0{fill:#262725;}
</style>
<path id="iconmonstr-shopping-bag-4" class="st0" d="M18,7h-4V4c0-2.2-1.8-4-4-4S6,1.8,6,4v3H2L0,24h20L18,7z M7,4c0-1.7,1.3-3,3-3
	s3,1.3,3,3v3H7V4z M2.2,22L3.8,9H6v1.5C6,10.8,6.2,11,6.5,11S7,10.8,7,10.5V9h6v1.5c0,0.3,0.2,0.5,0.5,0.5s0.5-0.2,0.5-0.5V9h2.2
	l1.5,13H2.2z"/>
</svg>
